# AST/ASF file generated using VICON BodyLanguage
# -----------------------------------------------
:version 1.10
:name VICON
:units
  mass 1.0
  length 0.45
  angle deg
:documentation
   .ast/.asf automatically generated from VICON data using
   VICON BodyBuilder and BodyLanguage model FoxedUp or BRILLIANT.MOD
:root
   order TX TY TZ RX RY RZ
   axis XYZ
   position 0 0 0  
   orientation 0 -0 0 
:bonedata
  begin
     id 1 
     name lhipjoint
     direction 0.432694 -0.693742 0.575759 
     length 2.19277 
     axis 0 -0 0  XYZ
  end
  begin
     id 2 
     name lfemur
     direction 0.34202 -0.939693 0  
     length 6.69022  
     axis 0 -0 20  XYZ
    dof rx ry rz
    limits (-160.0 20.0)
           (-70.0 70.0)
           (-60.0 70.0)
  end
  begin
     id 3 
     name ltibia
     direction 0.34202 -0.939693 0   
     length 6.50337   
     axis 0 -0 20   XYZ
    dof rx
    limits (-10.0 170.0)
  end
  begin
     id 4 
     name lfoot
     direction 0.158999 -0.435969 0.885805   
     length 2.70564   
     axis -90 -1.13533e-015 20   XYZ
    dof rx rz
    limits (-45.0 90.0)
           (-70.0 20.0)
  end
  begin
     id 5 
     name ltoes
     direction -0.00592919 0.00964381 0.999936   
     length 1.29929   
     axis -90 -1.13533e-015 20   XYZ
    dof rx
    limits (-90.0 20.0)
  end
  begin
     id 6 
     name rhipjoint
     direction -0.414359 -0.700339 0.581234   
     length 2.17212  
     axis 0 -0 0  XYZ 
  end
  begin
     id 7 
     name rfemur
     direction -0.34202 -0.939693 0   
     length 7.17659   
     axis 0 -0 -20   XYZ
    dof rx ry rz
    limits (-160.0 20.0)
           (-70.0 70.0)
           (-70.0 60.0)
  end
  begin
     id 8 
     name rtibia
     direction -0.34202 -0.939693 0   
     length 6.36669   
     axis 0 -0 -20   XYZ
    dof rx
    limits (-10.0 170.0)
 end
 begin
     id 9 
     name rfoot
     direction -0.137064 -0.37658 0.916188   
     length 2.22351  
     axis -90 1.13533e-015 -20   XYZ
    dof rx rz
    limits (-45.0 90.0)
           (-20.0 70.0)
  end
  begin
     id 10 
     name rtoes
     direction -0.000784077 -0.00289101 0.999996   
     length 1.09522   
     axis -90 1.13533e-015 -20   XYZ
    dof rx
    limits (-90.0 20.0)
  end
  begin
     id 11 
     name lowerback
     direction -0.0176242 0.984912 -0.172157   
     length 1.65301   
     axis 0 -0 0   XYZ
    dof rx ry rz
    limits (-20.0 45.0)
           (-30.0 30.0)
           (-30.0 30.0)
  end
  begin
     id 12 
     name upperback
     direction -0.00218128 0.998776 -0.0494072   
     length 1.67776   
     axis 0 -0 0   XYZ
    dof rx ry rz
    limits (-20.0 45.0)
           (-30.0 30.0)
           (-30.0 30.0)
  end
  begin
     id 13 
     name thorax
     direction 0.00544186 0.999658 0.0255711   
     length 1.72293   
     axis 0 -0 0   XYZ
    dof rx ry rz
    limits (-20.0 45.0)
           (-30.0 30.0)
           (-30.0 30.0)
  end
  begin
     id 14 
     name lowerneck
     direction -0.105325 0.983841 0.144785   
     length 2.14226   
     axis 0 -0 0   XYZ
    dof rx ry rz
    limits (-20.0 45.0)
           (-30.0 30.0)
           (-30.0 30.0)
  end
  begin
     id 15 
     name upperneck
     direction 0.0547957 0.988053 -0.144041   
     length 2.17508   
     axis 0 -0 0   XYZ
    dof rx ry rz
    limits (-20.0 45.0)
           (-30.0 30.0)
           (-30.0 30.0)
  end
  begin
     id 16
     name head
     direction 0.0247488 0.997534 -0.0656813  
     length 2.20048  
     axis 0 -0 0   XYZ
    dof rx ry rz
    limits (-20.0 45.0)
           (-30.0 30.0)
           (-30.0 30.0)
  end
  begin
     id 17 
     name lclavicle
     direction 0.820559 0.567247 -0.0701026  
     length 4.09615  
     axis 0 -0 0   XYZ
    dof ry rz
    limits (-20.0 10.0)
           (0.0 20.0)
  end
  begin
     id 18 
     name lhumerus
     direction 0.999977 -0.0067566 -9.96392e-005   
     length 4.59333   
     axis -180 -30 -90   XYZ
    dof rx ry rz
    limits (-60.0 90.0)
           (-90.0 90.0)
           (-90.0 90.0)
  end
  begin
     id 19
     name lradius
     direction 1 -4.48982e-011 -2.53425e-027   
     length 2.81151   
     axis -180 -30 -90   XYZ
    dof rx
    limits (-10.0 170.0)
  end
  begin
     id 20
     name lwrist
     direction 1 -4.48939e-011 -7.39254e-028   
     length 1.40576   
     axis 2.56395e-016 90 90   XYZ
    dof ry
    limits (-180.0 0.0)
 end
  begin
     id 21 
     name lhand
     direction 1 -4.48939e-011 -1.47851e-027   
     length 0.895651   
     axis 9.43423e-016 90 90   XYZ
    dof rx rz
    limits (-90.0 90.0)
           (-45.0 45.0)
  end
  begin
     id 22 
     name lfingers
     direction 1 -4.48978e-011 -2.95702e-027   
     length 0.722097   
     axis 1.88685e-015 90 90   XYZ
    dof rx
    limits (0.0 90.0)
  end
  begin
     id 23
     name lthumb
     direction 0.707107 -6.34931e-011 0.707107   
     length 1.03679   
     axis -90 45 -9.86935e-015   XYZ
    dof rx rz
    limits (-45.0 45.0)
           (-45.0 45.0)
  end
  begin
     id 24 
     name rclavicle
     direction -0.831414 0.553102 -0.0531864   
     length 4.24872  
     axis 0 -0 0   XYZ 
    dof ry rz
    limits (-10.0 20.0)
           (-20.0 0.0)
  end
  begin
     id 25 
     name rhumerus
     direction -0.999916 -0.000939607 0.0129331  
     length 4.74834   
     axis -180 30 90   XYZ
    dof rx ry rz
    limits (-90.0 60.0)
           (-90.0 90.0)
           (-90.0 90.0)
  end
  begin
     id 26 
     name rradius
     direction -1 -4.48956e-011 -1.31752e-027   
     length 2.79907   
     axis -180 30 90   XYZ
    dof rx
    limits (-10.0 170.0)
  end
  begin
     id 27 
     name rwrist
     direction -1 -4.4897e-011 -7.39254e-028   
     length 1.39954   
     axis 2.56395e-016 -90 -90   XYZ
    dof ry
    limits (-180.0 0.0)
  end
  begin
     id 28
     name rhand
     direction -0.999997 -0.00250697 0.000800838   
     length 0.953304   
     axis 9.43423e-016 -90 -90   XYZ
    dof rx rz
    limits (-90.0 90.0)
           (-45.0 45.0)
  end
  begin
     id 29
     name rfingers
     direction -1 -4.48954e-011 -2.95702e-027   
     length 0.763342   
     axis 1.88685e-015 -90 -90   XYZ
    dof rx
    limits (0.0 90.0)
  end
  begin
     id 30
     name rthumb
     direction -0.709701 -0.00217037 0.7045   
     length 1.10115   
     axis -90 -45 9.86935e-015   XYZ
    dof rx rz
    limits (-45.0 45.0)
           (-45.0 45.0)
  end
:hierarchy
  begin
    root lhipjoint rhipjoint lowerback
    lhipjoint lfemur
    lfemur ltibia
    ltibia lfoot
    lfoot ltoes
    rhipjoint rfemur
    rfemur rtibia
    rtibia rfoot
    rfoot rtoes
    lowerback upperback
    upperback thorax
    thorax lowerneck lclavicle rclavicle
    lowerneck upperneck
    upperneck head
    lclavicle lhumerus
    lhumerus lradius
    lradius lwrist
    lwrist lhand lthumb
    lhand lfingers
    rclavicle rhumerus
    rhumerus rradius
    rradius rwrist
    rwrist rhand rthumb
    rhand rfingers
  end

#!OML:ASF G:\ViconDB\ViconDB\414\test\team2\shane.ASF
:FULLY-SPECIFIED
:DEGREES
84
root 3.79084 24.8604 -17.5535 -7.40854 2.8413 -7.01826
lowerback 15.3435 -0.598721 5.42253
upperback 0.136065 0.388372 2.45594
thorax -8.47643 0.0196659 -0.518251
lowerneck -20.2849 -3.02007 -7.05865
upperneck 21.624 -3.37739 5.48284
head 10.5095 -1.46952 2.63514
rclavicle -2.00576e-014 -6.52014e-014
rhumerus 49.5583 -33.6281 -24.2225
rradius 62.7449
rwrist 17.1733
rhand -35.8683 -18.0012
rfingers 7.12502
rthumb -8.98267 -47.7899
lclavicle -1.85926e-014 -5.88403e-014
lhumerus 41.1465 36.7653 12.4569
lradius 57.1033
lwrist 15.3006
lhand -49.4316 17.4362
lfingers 7.12502
lthumb -22.0435 46.1999
rfemur 9.79444 -16.9479 17.4826
rtibia 23.378
rfoot -3.08836 3.1057
rtoes -9.2184
lfemur 8.47906 8.5196 -0.769481
ltibia 30.083
lfoot -8.03146 -27.9547
ltoes -7.0748
85
root 3.79611 24.8209 -17.5725 -7.22203 2.99691 -7.15374
lowerback 15.3191 -0.625439 5.41723
upperback 0.135067 0.3571 2.5337
thorax -8.466 0.00688336 -0.424739
lowerneck -20.1162 -3.01644 -7.18256
upperneck 21.5089 -3.37694 5.62471
head 10.441 -1.46436 2.70611
rclavicle -4.39112e-015 2.80286e-014
rhumerus 49.5583 -33.6281 -24.2225
rradius 62.7449
rwrist 17.1733
rhand -35.8683 -18.0012
rfingers 7.12502
rthumb -8.98267 -47.7899
lclavicle -1.85926e-014 -5.88403e-014
lhumerus 41.1465 36.7653 12.4569
lradius 57.1033
lwrist 15.3006
lhand -49.4316 17.4362
lfingers 7.12502
lthumb -22.0435 46.1999
rfemur 9.41298 -17.1416 17.6134
rtibia 23.3118
rfoot -2.99629 3.04518
rtoes -10.0051
lfemur 8.04244 8.62083 -0.523284
ltibia 29.8699
lfoot -7.89763 -28.0171
ltoes -6.87186
86
root 3.80446 24.7662 -17.5916 -7.1209 3.13411 -7.17904
lowerback 15.3786 -0.651781 5.49016
upperback 0.168449 0.333575 2.48144
thorax -8.46366 -0.00810572 -0.516813
lowerneck -20.0138 -2.95229 -7.00298
upperneck 21.3632 -3.36242 5.6894
head 10.3654 -1.43575 2.69983
rclavicle 1.9788e-014 5.46658e-014
rhumerus 49.4571 -33.6209 -24.0271
rradius 63.0998
rwrist 17.56
rhand -36.3702 -18.4459
rfingers 7.12502
rthumb -9.46703 -48.2133
lclavicle -1.85926e-014 -5.88403e-014
lhumerus 41.1465 36.7653 12.4569
lradius 57.1033
lwrist 15.3006
lhand -49.4316 17.4362
lfingers 7.12502
lthumb -22.0435 46.1999
rfemur 9.13321 -17.5825 17.4642
rtibia 23.2262
rfoot -2.62582 3.23329
rtoes -9.57905
lfemur 7.71545 8.87682 -0.390275
ltibia 29.6685
lfoot -7.90579 -27.7834
ltoes -7.14517
87
root 3.81183 24.6919 -17.6127 -7.03209 3.36731 -7.17385
lowerback 15.3811 -0.677123 5.33507
upperback 0.279638 0.273112 2.55413
thorax -8.34752 -0.0253822 -0.339333
lowerneck -19.9023 -2.82796 -6.88797
upperneck 21.1681 -3.21468 5.65251
head 10.2604 -1.36367 2.68674
rclavicle -1.89389e-015 -2.64384e-014
rhumerus 49.5661 -33.7813 -23.9973
rradius 63.2109
rwrist 17.7807
rhand -36.4202 -18.0691
rfingers 7.12502
rthumb -9.51526 -47.8343
lclavicle -1.85926e-014 -5.88403e-014
lhumerus 41.1465 36.7653 12.4569
lradius 57.1033
lwrist 15.3006
lhand -49.4316 17.4362
lfingers 7.12502
lthumb -22.0435 46.1999
rfemur 8.8706 -17.6775 17.4013
rtibia 23.109
rfoot -2.49847 3.0346
rtoes -9.63551
lfemur 7.35752 8.99422 -0.331628
ltibia 29.4609
lfoot -7.88652 -27.3064
ltoes -7.11709
88
root 3.82059 24.6069 -17.6295 -6.93088 3.5015 -7.1307
lowerback 15.5386 -0.675567 5.32784
upperback 0.247625 0.283699 2.5059
thorax -8.47043 -0.0238179 -0.387935
lowerneck -19.6053 -2.87317 -7.00132
upperneck 21.0397 -3.30434 5.83555
head 10.1708 -1.39632 2.75699
rclavicle -5.94723e-015 -2.29099e-014
rhumerus 49.2954 -33.7034 -23.7169
rradius 63.5283
rwrist 17.5272
rhand -36.5167 -18.4873
rfingers 7.12502
rthumb -9.60839 -48.2482
lclavicle -1.85926e-014 -5.88403e-014
lhumerus 41.1465 36.7653 12.4569
lradius 57.1033
lwrist 15.3006
lhand -49.4316 17.4362
lfingers 7.12502
lthumb -22.0435 46.1999
rfemur 8.61475 -18.094 17.1413
rtibia 22.9717
rfoot -2.07148 3.43212
rtoes -8.74009
lfemur 7.07465 9.03653 -0.36914
ltibia 29.2717
lfoot -7.98071 -26.3964
ltoes -7.29988
89
root 3.83114 24.5045 -17.6479 -6.87162 3.65658 -7.14011
lowerback 15.5579 -0.693366 5.31673
upperback 0.361996 0.254992 2.52075
thorax -8.35794 -0.0331117 -0.360706
lowerneck -19.4802 -2.50864 -7.07881
upperneck 20.8874 -2.8944 6.32544
head 10.0707 -1.15681 3.00349
rclavicle -7.68582e-015 -4.59193e-014
rhumerus 49.2954 -33.7034 -23.7169
rradius 63.5283
rwrist 17.5272
rhand -36.5167 -18.4873
rfingers 7.12502
rthumb -9.60839 -48.2482
lclavicle -1.85926e-014 -5.88403e-014
lhumerus 41.1465 36.7653 12.4569
lradius 57.1033
lwrist 15.3006
lhand -49.4316 17.4362
lfingers 7.12502
lthumb -22.0435 46.1999
rfemur 8.38333 -18.1914 17.0408
rtibia 22.7548
rfoot -1.77739 3.48238
rtoes -8.24073
lfemur 6.79935 8.97568 -0.375919
ltibia 29.0803
lfoot -7.84281 -25.3055
ltoes -7.09593
90
root 3.83525 24.3843 -17.6661 -6.8032 3.83496 -7.01738
lowerback 15.7247 -0.701816 5.00819
upperback 0.421669 0.200696 2.55356
thorax -8.38954 -0.0459851 -0.138854
lowerneck -19.6771 -2.81547 -7.18248
upperneck 21.0479 -3.24922 6.18137
head 10.1922 -1.3433 2.91984
rclavicle 1.11661e-015 9.14409e-015
rhumerus 49.4527 -33.8528 -24.0025
rradius 63.9314
rwrist 17.7171
rhand -36.5167 -18.4873
rfingers 7.12502
rthumb -9.60839 -48.2482
lclavicle -1.85926e-014 -5.88403e-014
lhumerus 41.1465 36.7653 12.4569
lradius 57.1033
lwrist 15.3006
lhand -49.4316 17.4362
lfingers 7.12502
lthumb -22.0435 46.1999
rfemur 8.19885 -18.2841 16.807
rtibia 22.4733
rfoot -1.64249 3.55471
rtoes -9.08263
lfemur 6.49162 9.73576 -0.267807
ltibia 28.9092
lfoot -7.90648 -24.9067
ltoes -7.36804
91
root 3.84208 24.2509 -17.6855 -6.69389 4.02862 -7.02754
lowerback 15.7923 -0.672938 4.9994
upperback 0.471118 0.242636 2.58312
thorax -8.37224 -0.0237967 -0.111803
lowerneck -19.5981 -2.76158 -7.0933
upperneck 21.0626 -3.1763 6.05997
head 10.1734 -1.31794 2.87238
rclavicle 1.86671e-015 -1.6201e-014
rhumerus 49.0355 -33.8689 -23.5372
rradius 64.6411
rwrist 17.7483
rhand -36.5167 -18.4873
rfingers 7.12502
rthumb -9.60839 -48.2482
lclavicle -1.85926e-014 -5.88403e-014
lhumerus 41.1465 36.7653 12.4569
lradius 57.1033
lwrist 15.3006
lhand -49.4316 17.4362
lfingers 7.12502
lthumb -22.0435 46.1999
rfemur 7.94091 -18.1441 16.8099
rtibia 22.1602
rfoot -1.49223 3.38461
rtoes -8.8543
lfemur 6.09415 9.71001 -0.283155
ltibia 28.7273
lfoot -7.61673 -23.6988
ltoes -7.11214
92
root 3.84839 24.1023 -17.7046 -6.62147 4.1976 -6.92657
lowerback 15.9636 -0.687906 4.89387
upperback 0.503955 0.214338 2.58002
thorax -8.43384 -0.0338744 -0.0481937
lowerneck -19.4923 -2.80956 -7.26454
upperneck 20.9879 -3.23387 6.21569
head 10.1371 -1.34134 2.94746
rclavicle 1.60891e-015 3.93594e-014
rhumerus 48.9576 -33.8602 -23.5481
rradius 64.9577
rwrist 17.5289
rhand -36.5167 -18.4873
rfingers 7.12502
rthumb -9.60839 -48.2482
lclavicle -1.85926e-014 -5.88403e-014
lhumerus 41.1465 36.7653 12.4569
lradius 57.1033
lwrist 15.3006
lhand -49.4316 17.4362
lfingers 7.12502
lthumb -22.0435 46.1999
rfemur 7.74593 -18.0643 16.6111
rtibia 21.8605
rfoot -1.40899 3.40003
rtoes -8.44548
lfemur 5.76088 9.97331 -0.319179
ltibia 28.5265
lfoot -7.4435 -22.8587
ltoes -7.19552
93
root 3.85312 23.9331 -17.7245 -6.56105 4.38686 -6.89165
lowerback 16.0169 -0.665083 4.77214
upperback 0.625094 0.224699 2.63117
thorax -8.33179 -0.0198536 0.0717632
lowerneck -19.4551 -2.9101 -7.578
upperneck 20.8795 -3.32676 6.41948
head 10.1082 -1.38569 3.05775
rclavicle 1.59618e-014 -4.96962e-016
rhumerus 48.7764 -33.9883 -23.3778
rradius 65.5277
rwrist 17.7137
rhand -36.5218 -18.664
rfingers 7.12502
rthumb -9.61329 -48.4247
lclavicle -1.85926e-014 -5.88403e-014
lhumerus 41.1465 36.7653 12.4569
lradius 57.1033
lwrist 15.3006
lhand -49.4316 17.4362
lfingers 7.12502
lthumb -22.0435 46.1999
rfemur 7.57708 -17.9323 16.5154
rtibia 21.4654
rfoot -1.26041 3.14778
rtoes -8.30339
lfemur 5.40272 10.2284 -0.282878
ltibia 28.3242
lfoot -7.14899 -21.9367
ltoes -6.57499
94
root 3.85562 23.7506 -17.7435 -6.44833 4.53059 -6.88015
lowerback 16.0425 -0.641281 4.60176
upperback 0.67309 0.228469 2.67584
thorax -8.29427 -0.00934748 0.21456
lowerneck -19.0986 -2.74838 -7.35028
upperneck 20.5112 -3.1718 6.38646
head 9.8934 -1.30421 3.02422
rclavicle 1.63997e-015 3.20043e-014
rhumerus 48.3591 -33.7899 -23.05
rradius 66.091
rwrist 16.426
rhand -37.7186 -17.9216
rfingers 7.12502
rthumb -10.7678 -47.6256
lclavicle -1.85926e-014 -5.88403e-014
lhumerus 41.1465 36.7653 12.4569
lradius 57.1033
lwrist 15.3006
lhand -49.4316 17.4362
lfingers 7.12502
lthumb -22.0435 46.1999
rfemur 7.33607 -17.9012 16.4395
rtibia 21.1151
rfoot -0.798843 3.13818
rtoes -7.60139
lfemur 5.0268 10.4221 -0.241782
ltibia 28.0996
lfoot -6.90376 -21.0023
ltoes -6.37281
95
root 3.86398 23.5544 -17.7669 -6.35485 4.78276 -6.91978
lowerback 16.1601 -0.672529 4.6404
upperback 0.736764 0.199938 2.68017
thorax -8.29167 -0.0236366 0.204131
lowerneck -19.1908 -2.81716 -7.29719
upperneck 20.3682 -3.28759 6.45307
head 9.86908 -1.34386 3.0199
rclavicle -1.97915e-014 -1.64991e-014
rhumerus 48.3591 -33.7899 -23.05
rradius 66.091
rwrist 16.426
rhand -37.7186 -17.9216
rfingers 7.12502
rthumb -10.7678 -47.6256
lclavicle -1.85926e-014 -5.88403e-014
lhumerus 41.1465 36.7653 12.4569
lradius 57.1033
lwrist 15.3006
lhand -49.4316 17.4362
lfingers 7.12502
lthumb -22.0435 46.1999
rfemur 7.1238 -17.4998 16.5397
rtibia 20.7197
rfoot -0.586211 2.35166
rtoes -7.62657
lfemur 4.60217 10.409 -0.211008
ltibia 27.8828
lfoot -6.64661 -20.0386
ltoes -6.16913
